<svg width="660" height="460" viewBox="0 0 660 460" fill="none" xmlns="http://www.w3.org/2000/svg">
  <rect width="660" height="460" rx="28" fill="#FCFFFD"/>
  <rect x="26" y="24" width="608" height="70" rx="16" fill="#EEF8F3"/>
  <rect x="46" y="44" width="38" height="30" rx="10" fill="url(#logo)"/>
  <rect x="97" y="46" width="206" height="10" rx="5" fill="#12221B"/>
  <rect x="97" y="62" width="140" height="8" rx="4" fill="#7A8F86"/>

  <rect x="26" y="112" width="300" height="154" rx="18" fill="#FFFFFF" stroke="#DDEBE4"/>
  <text x="44" y="144" fill="#4F665C" font-size="17" font-family="Plus Jakarta Sans, sans-serif">Saldo Total</text>
  <text x="44" y="182" fill="#1FAF65" font-size="38" font-weight="700" font-family="Sora, sans-serif">Rp 3.400.000</text>
  <rect x="44" y="202" width="124" height="8" rx="4" fill="#DDEBE4"/>
  <rect x="44" y="222" width="252" height="12" rx="6" fill="url(#income)"/>

  <rect x="344" y="112" width="290" height="154" rx="18" fill="#FFFFFF" stroke="#DDEBE4"/>
  <text x="362" y="144" fill="#4F665C" font-size="17" font-family="Plus Jakarta Sans, sans-serif">Asisten AI</text>
  <rect x="362" y="161" width="244" height="12" rx="6" fill="#E6F6EF"/>
  <rect x="362" y="181" width="196" height="12" rx="6" fill="#E6F6EF"/>
  <rect x="362" y="211" width="244" height="38" rx="12" fill="#1E9A72"/>
  <text x="384" y="236" fill="white" font-size="16" font-weight="700" font-family="Plus Jakarta Sans, sans-serif">Analisis Bulan Ini</text>

  <rect x="26" y="284" width="608" height="150" rx="18" fill="#FFFFFF" stroke="#DDEBE4"/>
  <text x="46" y="316" fill="#12221B" font-size="22" font-weight="700" font-family="Sora, sans-serif">Tren 7 Hari Terakhir</text>
  <path d="M52 394C100 318 150 318 198 380C246 442 296 442 344 396C392 350 442 350 490 390C538 430 588 430 634 392"
    stroke="#1FAF65" stroke-width="5" fill="none" stroke-linecap="round"/>
  <path d="M52 394C100 382 150 372 198 376C246 380 296 388 344 372C392 356 442 360 490 380C538 400 588 406 634 392"
    stroke="#9E5139" stroke-width="5" fill="none" stroke-linecap="round"/>

  <defs>
    <linearGradient id="logo" x1="47" y1="45" x2="83" y2="73" gradientUnits="userSpaceOnUse">
      <stop stop-color="#30B687"/>
      <stop offset="1" stop-color="#245FA8"/>
    </linearGradient>
    <linearGradient id="income" x1="44" y1="222" x2="296" y2="234" gradientUnits="userSpaceOnUse">
      <stop stop-color="#1C9470"/>
      <stop offset="1" stop-color="#30B687"/>
    </linearGradient>
  </defs>
</svg>
