<svg width="1200" height="630" viewBox="0 0 1200 630" fill="none" xmlns="http://www.w3.org/2000/svg">
  <rect width="1200" height="630" fill="#F4FAF7"/>
  <circle cx="130" cy="48" r="220" fill="#DDF3E8"/>
  <circle cx="1120" cy="600" r="320" fill="#E2EDFA"/>

  <rect x="80" y="88" width="1040" height="454" rx="36" fill="#FFFFFF" stroke="#DDEBE4"/>
  <rect x="132" y="142" width="84" height="84" rx="24" fill="url(#g1)"/>
  <path d="M154 161h11v17l14-17h13l-18 23 18 22h-14l-14-17v17h-11v-45Z" fill="white"/>
  <path d="M194 161h11v18l8-10h14l-17 20 18 17h-14l-9-8v8h-11v-45Z" fill="white"/>

  <text x="246" y="183" fill="#0F2019" font-size="56" font-weight="800" font-family="Sora, sans-serif">Kelola Keuangan</text>
  <text x="246" y="228" fill="#4F665C" font-size="30" font-family="Plus Jakarta Sans, sans-serif">Satu aplikasi untuk transaksi, anggaran, laporan, dan AI asisten.</text>

  <rect x="132" y="276" width="936" height="188" rx="24" fill="#F7FCFA" stroke="#DDEBE4"/>
  <text x="166" y="332" fill="#1E9A72" font-size="34" font-weight="700" font-family="Sora, sans-serif">Transaksi | Kantong | Hutang &amp; Piutang</text>
  <text x="166" y="378" fill="#245FA8" font-size="34" font-weight="700" font-family="Sora, sans-serif">Tanggungan | Kategori | Anggaran | Laporan | AI</text>
  <text x="166" y="425" fill="#4F665C" font-size="28" font-family="Plus Jakarta Sans, sans-serif">kk.mudahdeal.com</text>

  <defs>
    <linearGradient id="g1" x1="132" y1="142" x2="216" y2="226" gradientUnits="userSpaceOnUse">
      <stop stop-color="#30B687"/>
      <stop offset="0.55" stop-color="#1C9470"/>
      <stop offset="1" stop-color="#245FA8"/>
    </linearGradient>
  </defs>
</svg>

